<?xml version="1.0" standalone="no"?>
<!DOCTYPE svg PUBLIC "-//W3C//DTD SVG 1.1//EN" 
"http://www.w3.org/Graphics/SVG/1.1/DTD/svg11.dtd"> <svg><g id="main" width="1130" height="3300"><g transform="translate(300,608.7875556945801)"><path class="link" fill="none" stroke-width="2" stroke="#0e2e2e" d="M0,0L0,-508.8315010070801L300,-508.8315010070801"></path><path class="link" fill="none" stroke-width="2" stroke="#0e2e2e" d="M0,0L0,508.8315010070801L30,508.8315010070801"></path><path class="link" fill="none" stroke-width="2" stroke="#0e2e2e" d="M300,-508.8315010070801L300,-568.7875556945801L630,-568.7875556945801"></path><path class="link" fill="none" stroke-width="2" stroke="#0e2e2e" d="M300,-508.8315010070801L300,-448.8754463195801L330,-448.8754463195801"></path><path class="link" fill="none" stroke-width="2" stroke="#0e2e2e" d="M30,508.8315010070801L30,173.71244430541992L510,173.71244430541992"></path><path class="link" fill="none" stroke-width="2" stroke="#0e2e2e" d="M30,508.8315010070801L30,843.9505577087402L60,843.9505577087402"></path><path class="link" fill="none" stroke-width="2" stroke="#0e2e2e" d="M330,-448.8754463195801L330,-508.7875556945801L630,-508.7875556945801"></path><path class="link" fill="none" stroke-width="2" stroke="#0e2e2e" d="M330,-448.8754463195801L330,-388.9633369445801L360,-388.9633369445801"></path><path class="link" fill="none" stroke-width="2" stroke="#0e2e2e" d="M510,173.71244430541992L510,121.21244430541992L630,121.21244430541992"></path><path class="link" fill="none" stroke-width="2" stroke="#0e2e2e" d="M510,173.71244430541992L510,226.21244430541992L540,226.21244430541992"></path><path class="link" fill="none" stroke-width="2" stroke="#0e2e2e" d="M60,843.9505577087402L60,421.1904716491699L240,421.1904716491699"></path><path class="link" fill="none" stroke-width="2" stroke="#0e2e2e" d="M60,843.9505577087402L60,1266.7106437683105L90,1266.7106437683105"></path><path class="link" fill="none" stroke-width="2" stroke="#0e2e2e" d="M360,-388.9633369445801L360,-448.7875556945801L630,-448.7875556945801"></path><path class="link" fill="none" stroke-width="2" stroke="#0e2e2e" d="M360,-388.9633369445801L360,-329.1391181945801L390,-329.1391181945801"></path><path class="link" fill="none" stroke-width="2" stroke="#0e2e2e" d="M540,226.21244430541992L540,181.21244430541992L630,181.21244430541992"></path><path class="link" fill="none" stroke-width="2" stroke="#0e2e2e" d="M540,226.21244430541992L540,271.2124443054199L570,271.2124443054199"></path><path class="link" fill="none" stroke-width="2" stroke="#0e2e2e" d="M240,421.1904716491699L240,361.2124443054199L630,361.2124443054199"></path><path class="link" fill="none" stroke-width="2" stroke="#0e2e2e" d="M240,421.1904716491699L240,481.1684989929199L270,481.1684989929199"></path><path class="link" fill="none" stroke-width="2" stroke="#0e2e2e" d="M90,1266.7106437683105L90,1141.21244430542L570,1141.21244430542"></path><path class="link" fill="none" stroke-width="2" stroke="#0e2e2e" d="M90,1266.7106437683105L90,1392.2088432312012L120,1392.2088432312012"></path><path class="link" fill="none" stroke-width="2" stroke="#0e2e2e" d="M390,-329.1391181945801L390,-388.7875556945801L630,-388.7875556945801"></path><path class="link" fill="none" stroke-width="2" stroke="#0e2e2e" d="M390,-329.1391181945801L390,-269.4906806945801L420,-269.4906806945801"></path><path class="link" fill="none" stroke-width="2" stroke="#0e2e2e" d="M570,271.2124443054199L570,241.21244430541992L630,241.21244430541992"></path><path class="link" fill="none" stroke-width="2" stroke="#0e2e2e" d="M570,271.2124443054199L570,301.2124443054199L600,301.2124443054199"></path><path class="link" fill="none" stroke-width="2" stroke="#0e2e2e" d="M270,481.1684989929199L270,421.2124443054199L600,421.2124443054199"></path><path class="link" fill="none" stroke-width="2" stroke="#0e2e2e" d="M270,481.1684989929199L270,541.1245536804199L300,541.1245536804199"></path><path class="link" fill="none" stroke-width="2" stroke="#0e2e2e" d="M570,1141.21244430542L570,1111.21244430542L630,1111.21244430542"></path><path class="link" fill="none" stroke-width="2" stroke="#0e2e2e" d="M570,1141.21244430542L570,1171.21244430542L600,1171.21244430542"></path><path class="link" fill="none" stroke-width="2" stroke="#0e2e2e" d="M120,1392.2088432312012L120,1291.21244430542L570,1291.21244430542"></path><path class="link" fill="none" stroke-width="2" stroke="#0e2e2e" d="M120,1392.2088432312012L120,1493.2052421569824L150,1493.2052421569824"></path><path class="link" fill="none" stroke-width="2" stroke="#0e2e2e" d="M420,-269.4906806945801L420,-328.7875556945801L630,-328.7875556945801"></path><path class="link" fill="none" stroke-width="2" stroke="#0e2e2e" d="M420,-269.4906806945801L420,-210.19380569458008L450,-210.19380569458008"></path><path class="link" fill="none" stroke-width="2" stroke="#0e2e2e" d="M600,301.2124443054199L600,301.2124443054199L630,301.2124443054199"></path><path class="link" fill="none" stroke-width="2" stroke="#0e2e2e" d="M600,421.2124443054199L600,421.2124443054199L630,421.2124443054199"></path><path class="link" fill="none" stroke-width="2" stroke="#0e2e2e" d="M300,541.1245536804199L300,481.2124443054199L630,481.2124443054199"></path><path class="link" fill="none" stroke-width="2" stroke="#0e2e2e" d="M300,541.1245536804199L300,601.0366630554199L330,601.0366630554199"></path><path class="link" fill="none" stroke-width="2" stroke="#0e2e2e" d="M600,1171.21244430542L600,1171.21244430542L630,1171.21244430542"></path><path class="link" fill="none" stroke-width="2" stroke="#0e2e2e" d="M570,1291.21244430542L570,1246.21244430542L600,1246.21244430542"></path><path class="link" fill="none" stroke-width="2" stroke="#0e2e2e" d="M570,1291.21244430542L570,1336.21244430542L600,1336.21244430542"></path><path class="link" fill="none" stroke-width="2" stroke="#0e2e2e" d="M150,1493.2052421569824L150,1411.21244430542L630,1411.21244430542"></path><path class="link" fill="none" stroke-width="2" stroke="#0e2e2e" d="M150,1493.2052421569824L150,1575.198040008545L180,1575.198040008545"></path><path class="link" fill="none" stroke-width="2" stroke="#0e2e2e" d="M450,-210.19380569458008L450,-268.7875556945801L630,-268.7875556945801"></path><path class="link" fill="none" stroke-width="2" stroke="#0e2e2e" d="M450,-210.19380569458008L450,-151.60005569458008L480,-151.60005569458008"></path><path class="link" fill="none" stroke-width="2" stroke="#0e2e2e" d="M330,601.0366630554199L330,601.0366630554199L360,601.0366630554199"></path><path class="link" fill="none" stroke-width="2" stroke="#0e2e2e" d="M600,1246.21244430542L600,1231.21244430542L630,1231.21244430542"></path><path class="link" fill="none" stroke-width="2" stroke="#0e2e2e" d="M600,1246.21244430542L600,1261.21244430542L630,1261.21244430542"></path><path class="link" fill="none" stroke-width="2" stroke="#0e2e2e" d="M600,1336.21244430542L600,1321.21244430542L630,1321.21244430542"></path><path class="link" fill="none" stroke-width="2" stroke="#0e2e2e" d="M600,1336.21244430542L600,1351.21244430542L630,1351.21244430542"></path><path class="link" fill="none" stroke-width="2" stroke="#0e2e2e" d="M180,1575.198040008545L180,1486.21244430542L570,1486.21244430542"></path><path class="link" fill="none" stroke-width="2" stroke="#0e2e2e" d="M180,1575.198040008545L180,1664.18363571167L210,1664.18363571167"></path><path class="link" fill="none" stroke-width="2" stroke="#0e2e2e" d="M480,-151.60005569458008L480,-208.78755569458008L630,-208.78755569458008"></path><path class="link" fill="none" stroke-width="2" stroke="#0e2e2e" d="M480,-151.60005569458008L480,-94.41255569458008L510,-94.41255569458008"></path><path class="link" fill="none" stroke-width="2" stroke="#0e2e2e" d="M360,601.0366630554199L360,541.2124443054199L630,541.2124443054199"></path><path class="link" fill="none" stroke-width="2" stroke="#0e2e2e" d="M360,601.0366630554199L360,660.8608818054199L390,660.8608818054199"></path><path class="link" fill="none" stroke-width="2" stroke="#0e2e2e" d="M570,1486.21244430542L570,1486.21244430542L600,1486.21244430542"></path><path class="link" fill="none" stroke-width="2" stroke="#0e2e2e" d="M210,1664.18363571167L210,1561.21244430542L630,1561.21244430542"></path><path class="link" fill="none" stroke-width="2" stroke="#0e2e2e" d="M210,1664.18363571167L210,1767.15482711792L240,1767.15482711792"></path><path class="link" fill="none" stroke-width="2" stroke="#0e2e2e" d="M510,-94.41255569458008L510,-148.78755569458008L630,-148.78755569458008"></path><path class="link" fill="none" stroke-width="2" stroke="#0e2e2e" d="M510,-94.41255569458008L510,-40.03755569458008L540,-40.03755569458008"></path><path class="link" fill="none" stroke-width="2" stroke="#0e2e2e" d="M390,660.8608818054199L390,601.2124443054199L630,601.2124443054199"></path><path class="link" fill="none" stroke-width="2" stroke="#0e2e2e" d="M390,660.8608818054199L390,720.5093193054199L420,720.5093193054199"></path><path class="link" fill="none" stroke-width="2" stroke="#0e2e2e" d="M600,1486.21244430542L600,1471.21244430542L630,1471.21244430542"></path><path class="link" fill="none" stroke-width="2" stroke="#0e2e2e" d="M600,1486.21244430542L600,1501.21244430542L630,1501.21244430542"></path><path class="link" fill="none" stroke-width="2" stroke="#0e2e2e" d="M240,1767.15482711792L240,1636.21244430542L570,1636.21244430542"></path><path class="link" fill="none" stroke-width="2" stroke="#0e2e2e" d="M240,1767.15482711792L240,1898.09720993042L270,1898.09720993042"></path><path class="link" fill="none" stroke-width="2" stroke="#0e2e2e" d="M540,-40.03755569458008L540,-88.78755569458008L630,-88.78755569458008"></path><path class="link" fill="none" stroke-width="2" stroke="#0e2e2e" d="M540,-40.03755569458008L540,8.712444305419922L570,8.712444305419922"></path><path class="link" fill="none" stroke-width="2" stroke="#0e2e2e" d="M420,720.5093193054199L420,661.2124443054199L630,661.2124443054199"></path><path class="link" fill="none" stroke-width="2" stroke="#0e2e2e" d="M420,720.5093193054199L420,779.8061943054199L450,779.8061943054199"></path><path class="link" fill="none" stroke-width="2" stroke="#0e2e2e" d="M570,1636.21244430542L570,1636.21244430542L600,1636.21244430542"></path><path class="link" fill="none" stroke-width="2" stroke="#0e2e2e" d="M270,1898.09720993042L270,1759.96244430542L540,1759.96244430542"></path><path class="link" fill="none" stroke-width="2" stroke="#0e2e2e" d="M270,1898.09720993042L270,2036.23197555542L300,2036.23197555542"></path><path class="link" fill="none" stroke-width="2" stroke="#0e2e2e" d="M570,8.712444305419922L570,-28.787555694580078L630,-28.787555694580078"></path><path class="link" fill="none" stroke-width="2" stroke="#0e2e2e" d="M570,8.712444305419922L570,46.21244430541992L600,46.21244430541992"></path><path class="link" fill="none" stroke-width="2" stroke="#0e2e2e" d="M450,779.8061943054199L450,721.2124443054199L630,721.2124443054199"></path><path class="link" fill="none" stroke-width="2" stroke="#0e2e2e" d="M450,779.8061943054199L450,838.3999443054199L480,838.3999443054199"></path><path class="link" fill="none" stroke-width="2" stroke="#0e2e2e" d="M600,1636.21244430542L600,1621.21244430542L630,1621.21244430542"></path><path class="link" fill="none" stroke-width="2" stroke="#0e2e2e" d="M600,1636.21244430542L600,1651.21244430542L630,1651.21244430542"></path><path class="link" fill="none" stroke-width="2" stroke="#0e2e2e" d="M540,1759.96244430542L540,1711.21244430542L630,1711.21244430542"></path><path class="link" fill="none" stroke-width="2" stroke="#0e2e2e" d="M540,1759.96244430542L540,1808.71244430542L570,1808.71244430542"></path><path class="link" fill="none" stroke-width="2" stroke="#0e2e2e" d="M300,2036.23197555542L300,1936.21244430542L600,1936.21244430542"></path><path class="link" fill="none" stroke-width="2" stroke="#0e2e2e" d="M300,2036.23197555542L300,2136.25150680542L330,2136.25150680542"></path><path class="link" fill="none" stroke-width="2" stroke="#0e2e2e" d="M600,46.21244430541992L600,31.212444305419922L630,31.212444305419922"></path><path class="link" fill="none" stroke-width="2" stroke="#0e2e2e" d="M600,46.21244430541992L600,61.21244430541992L630,61.21244430541992"></path><path class="link" fill="none" stroke-width="2" stroke="#0e2e2e" d="M480,838.3999443054199L480,781.2124443054199L630,781.2124443054199"></path><path class="link" fill="none" stroke-width="2" stroke="#0e2e2e" d="M480,838.3999443054199L480,895.5874443054199L510,895.5874443054199"></path><path class="link" fill="none" stroke-width="2" stroke="#0e2e2e" d="M570,1808.71244430542L570,1771.21244430542L630,1771.21244430542"></path><path class="link" fill="none" stroke-width="2" stroke="#0e2e2e" d="M570,1808.71244430542L570,1846.21244430542L600,1846.21244430542"></path><path class="link" fill="none" stroke-width="2" stroke="#0e2e2e" d="M600,1936.21244430542L600,1921.21244430542L630,1921.21244430542"></path><path class="link" fill="none" stroke-width="2" stroke="#0e2e2e" d="M600,1936.21244430542L600,1951.21244430542L630,1951.21244430542"></path><path class="link" fill="none" stroke-width="2" stroke="#0e2e2e" d="M330,2136.25150680542L330,2048.71244430542L570,2048.71244430542"></path><path class="link" fill="none" stroke-width="2" stroke="#0e2e2e" d="M330,2136.25150680542L330,2223.79056930542L360,2223.79056930542"></path><path class="link" fill="none" stroke-width="2" stroke="#0e2e2e" d="M510,895.5874443054199L510,841.2124443054199L630,841.2124443054199"></path><path class="link" fill="none" stroke-width="2" stroke="#0e2e2e" d="M510,895.5874443054199L510,949.9624443054199L540,949.9624443054199"></path><path class="link" fill="none" stroke-width="2" stroke="#0e2e2e" d="M600,1846.21244430542L600,1831.21244430542L630,1831.21244430542"></path><path class="link" fill="none" stroke-width="2" stroke="#0e2e2e" d="M600,1846.21244430542L600,1861.21244430542L630,1861.21244430542"></path><path class="link" fill="none" stroke-width="2" stroke="#0e2e2e" d="M570,2048.71244430542L570,2011.21244430542L630,2011.21244430542"></path><path class="link" fill="none" stroke-width="2" stroke="#0e2e2e" d="M570,2048.71244430542L570,2086.21244430542L600,2086.21244430542"></path><path class="link" fill="none" stroke-width="2" stroke="#0e2e2e" d="M360,2223.79056930542L360,2161.21244430542L630,2161.21244430542"></path><path class="link" fill="none" stroke-width="2" stroke="#0e2e2e" d="M360,2223.79056930542L360,2286.36869430542L390,2286.36869430542"></path><path class="link" fill="none" stroke-width="2" stroke="#0e2e2e" d="M540,949.9624443054199L540,901.2124443054199L630,901.2124443054199"></path><path class="link" fill="none" stroke-width="2" stroke="#0e2e2e" d="M540,949.9624443054199L540,998.7124443054199L570,998.7124443054199"></path><path class="link" fill="none" stroke-width="2" stroke="#0e2e2e" d="M600,2086.21244430542L600,2071.21244430542L630,2071.21244430542"></path><path class="link" fill="none" stroke-width="2" stroke="#0e2e2e" d="M600,2086.21244430542L600,2101.21244430542L630,2101.21244430542"></path><path class="link" fill="none" stroke-width="2" stroke="#0e2e2e" d="M390,2286.36869430542L390,2221.21244430542L630,2221.21244430542"></path><path class="link" fill="none" stroke-width="2" stroke="#0e2e2e" d="M390,2286.36869430542L390,2351.52494430542L420,2351.52494430542"></path><path class="link" fill="none" stroke-width="2" stroke="#0e2e2e" d="M570,998.7124443054199L570,961.2124443054199L630,961.2124443054199"></path><path class="link" fill="none" stroke-width="2" stroke="#0e2e2e" d="M570,998.7124443054199L570,1036.21244430542L600,1036.21244430542"></path><path class="link" fill="none" stroke-width="2" stroke="#0e2e2e" d="M420,2351.52494430542L420,2281.21244430542L600,2281.21244430542"></path><path class="link" fill="none" stroke-width="2" stroke="#0e2e2e" d="M420,2351.52494430542L420,2421.83744430542L450,2421.83744430542"></path><path class="link" fill="none" stroke-width="2" stroke="#0e2e2e" d="M600,1036.21244430542L600,1021.2124443054199L630,1021.2124443054199"></path><path class="link" fill="none" stroke-width="2" stroke="#0e2e2e" d="M600,1036.21244430542L600,1051.21244430542L630,1051.21244430542"></path><path class="link" fill="none" stroke-width="2" stroke="#0e2e2e" d="M600,2281.21244430542L600,2281.21244430542L630,2281.21244430542"></path><path class="link" fill="none" stroke-width="2" stroke="#0e2e2e" d="M450,2421.83744430542L450,2356.21244430542L600,2356.21244430542"></path><path class="link" fill="none" stroke-width="2" stroke="#0e2e2e" d="M450,2421.83744430542L450,2487.46244430542L480,2487.46244430542"></path><path class="link" fill="none" stroke-width="2" stroke="#0e2e2e" d="M600,2356.21244430542L600,2341.21244430542L630,2341.21244430542"></path><path class="link" fill="none" stroke-width="2" stroke="#0e2e2e" d="M600,2356.21244430542L600,2371.21244430542L630,2371.21244430542"></path><path class="link" fill="none" stroke-width="2" stroke="#0e2e2e" d="M480,2487.46244430542L480,2431.21244430542L630,2431.21244430542"></path><path class="link" fill="none" stroke-width="2" stroke="#0e2e2e" d="M480,2487.46244430542L480,2543.71244430542L510,2543.71244430542"></path><path class="link" fill="none" stroke-width="2" stroke="#0e2e2e" d="M510,2543.71244430542L510,2491.21244430542L630,2491.21244430542"></path><path class="link" fill="none" stroke-width="2" stroke="#0e2e2e" d="M510,2543.71244430542L510,2596.21244430542L540,2596.21244430542"></path><path class="link" fill="none" stroke-width="2" stroke="#0e2e2e" d="M540,2596.21244430542L540,2551.21244430542L630,2551.21244430542"></path><path class="link" fill="none" stroke-width="2" stroke="#0e2e2e" d="M540,2596.21244430542L540,2641.21244430542L570,2641.21244430542"></path><path class="link" fill="none" stroke-width="2" stroke="#0e2e2e" d="M570,2641.21244430542L570,2611.21244430542L630,2611.21244430542"></path><path class="link" fill="none" stroke-width="2" stroke="#0e2e2e" d="M570,2641.21244430542L570,2671.21244430542L600,2671.21244430542"></path><path class="link" fill="none" stroke-width="2" stroke="#0e2e2e" d="M600,2671.21244430542L600,2671.21244430542L630,2671.21244430542"></path><g class="node" transform="translate(0,0)"><g class="gsymbol" transform=""><path class="symbol" fill="#1f77b4" d="M6.383076486422923,0A6.383076486422923,6.383076486422923,0,1,1,-6.383076486422923,0A6.383076486422923,6.383076486422923,0,1,1,6.383076486422923,0" stroke-width="0px"></path></g><text class="label" y="-8" x="-8" style="text-anchor: end;"> (35)</text></g><g class="node" transform="translate(300,-508.8315010070801)"><g class="gsymbol" transform=""><path class="symbol" fill="#1f77b4" d="M6.383076486422923,0A6.383076486422923,6.383076486422923,0,1,1,-6.383076486422923,0A6.383076486422923,6.383076486422923,0,1,1,6.383076486422923,0" stroke-width="0px"></path></g><text class="label" y="-8" x="-8" style="text-anchor: end;"> (34)</text></g><g class="node" transform="translate(30,508.8315010070801)"><g class="gsymbol" transform=""><path class="symbol" fill="#1f77b4" d="M6.383076486422923,0A6.383076486422923,6.383076486422923,0,1,1,-6.383076486422923,0A6.383076486422923,6.383076486422923,0,1,1,6.383076486422923,0" stroke-width="0px"></path></g><text class="label" y="-8" x="-8" style="text-anchor: end;"> (33)</text></g><g class="node" transform="translate(630,-568.7875556945801)"><g class="gsymbol" transform="rotate(45)rotate(90)"><path class="symbol" fill="black" d="M-7.58946638440411,-2.5298221281347035L-2.5298221281347035,-2.5298221281347035L-2.5298221281347035,-7.58946638440411L2.5298221281347035,-7.58946638440411L2.5298221281347035,-2.5298221281347035L7.58946638440411,-2.5298221281347035L7.58946638440411,2.5298221281347035L2.5298221281347035,2.5298221281347035L2.5298221281347035,7.58946638440411L-2.5298221281347035,7.58946638440411L-2.5298221281347035,2.5298221281347035L-7.58946638440411,2.5298221281347035Z" stroke-width="0px"></path></g><text class="label" y="3" x="8" style="text-anchor: start;"></text></g><g class="node" transform="translate(330,-448.8754463195801)"><g class="gsymbol" transform=""><path class="symbol" fill="#1f77b4" d="M6.383076486422923,0A6.383076486422923,6.383076486422923,0,1,1,-6.383076486422923,0A6.383076486422923,6.383076486422923,0,1,1,6.383076486422923,0" stroke-width="0px"></path></g><text class="label" y="-8" x="-8" style="text-anchor: end;"> (20)</text></g><g class="node" transform="translate(510,173.71244430541992)"><g class="gsymbol" transform=""><path class="symbol" fill="#1f77b4" d="M6.383076486422923,0A6.383076486422923,6.383076486422923,0,1,1,-6.383076486422923,0A6.383076486422923,6.383076486422923,0,1,1,6.383076486422923,0" stroke-width="0px"></path></g><text class="label" y="-8" x="-8" style="text-anchor: end;"> (27)</text></g><g class="node" transform="translate(60,843.9505577087402)"><g class="gsymbol" transform=""><path class="symbol" fill="#1f77b4" d="M6.383076486422923,0A6.383076486422923,6.383076486422923,0,1,1,-6.383076486422923,0A6.383076486422923,6.383076486422923,0,1,1,6.383076486422923,0" stroke-width="0px"></path></g><text class="label" y="-8" x="-8" style="text-anchor: end;"> (32)</text></g><g class="node" transform="translate(630,-508.7875556945801)"><g class="gsymbol" transform="rotate(45)rotate(90)"><path class="symbol" fill="black" d="M-7.58946638440411,-2.5298221281347035L-2.5298221281347035,-2.5298221281347035L-2.5298221281347035,-7.58946638440411L2.5298221281347035,-7.58946638440411L2.5298221281347035,-2.5298221281347035L7.58946638440411,-2.5298221281347035L7.58946638440411,2.5298221281347035L2.5298221281347035,2.5298221281347035L2.5298221281347035,7.58946638440411L-2.5298221281347035,7.58946638440411L-2.5298221281347035,2.5298221281347035L-7.58946638440411,2.5298221281347035Z" stroke-width="0px"></path></g><text class="label" y="3" x="8" style="text-anchor: start;"></text></g><g class="node" transform="translate(360,-388.9633369445801)"><g class="gsymbol" transform=""><path class="symbol" fill="#1f77b4" d="M6.383076486422923,0A6.383076486422923,6.383076486422923,0,1,1,-6.383076486422923,0A6.383076486422923,6.383076486422923,0,1,1,6.383076486422923,0" stroke-width="0px"></path></g><text class="label" y="-8" x="-8" style="text-anchor: end;"> (20)</text></g><g class="node" transform="translate(630,121.21244430541992)"><g class="gsymbol" transform="rotate(45)rotate(90)"><path class="symbol" fill="black" d="M-7.58946638440411,-2.5298221281347035L-2.5298221281347035,-2.5298221281347035L-2.5298221281347035,-7.58946638440411L2.5298221281347035,-7.58946638440411L2.5298221281347035,-2.5298221281347035L7.58946638440411,-2.5298221281347035L7.58946638440411,2.5298221281347035L2.5298221281347035,2.5298221281347035L2.5298221281347035,7.58946638440411L-2.5298221281347035,7.58946638440411L-2.5298221281347035,2.5298221281347035L-7.58946638440411,2.5298221281347035Z" stroke-width="0px"></path></g><text class="label" y="3" x="8" style="text-anchor: start;"></text></g><g class="node" transform="translate(540,226.21244430541992)"><g class="gsymbol" transform=""><path class="symbol" fill="#1f77b4" d="M6.383076486422923,0A6.383076486422923,6.383076486422923,0,1,1,-6.383076486422923,0A6.383076486422923,6.383076486422923,0,1,1,6.383076486422923,0" stroke-width="0px"></path></g><text class="label" y="-8" x="-8" style="text-anchor: end;"> (26)</text></g><g class="node" transform="translate(240,421.1904716491699)"><g class="gsymbol" transform=""><path class="symbol" fill="#1f77b4" d="M6.383076486422923,0A6.383076486422923,6.383076486422923,0,1,1,-6.383076486422923,0A6.383076486422923,6.383076486422923,0,1,1,6.383076486422923,0" stroke-width="0px"></path></g><text class="label" y="-8" x="-8" style="text-anchor: end;"> (31)</text></g><g class="node" transform="translate(90,1266.7106437683105)"><g class="gsymbol" transform=""><path class="symbol" fill="#1f77b4" d="M6.383076486422923,0A6.383076486422923,6.383076486422923,0,1,1,-6.383076486422923,0A6.383076486422923,6.383076486422923,0,1,1,6.383076486422923,0" stroke-width="0px"></path></g><text class="label" y="-8" x="-8" style="text-anchor: end;"> (30)</text></g><g class="node" transform="translate(630,-448.7875556945801)"><g class="gsymbol" transform="rotate(45)rotate(90)"><path class="symbol" fill="black" d="M-7.58946638440411,-2.5298221281347035L-2.5298221281347035,-2.5298221281347035L-2.5298221281347035,-7.58946638440411L2.5298221281347035,-7.58946638440411L2.5298221281347035,-2.5298221281347035L7.58946638440411,-2.5298221281347035L7.58946638440411,2.5298221281347035L2.5298221281347035,2.5298221281347035L2.5298221281347035,7.58946638440411L-2.5298221281347035,7.58946638440411L-2.5298221281347035,2.5298221281347035L-7.58946638440411,2.5298221281347035Z" stroke-width="0px"></path></g><text class="label" y="3" x="8" style="text-anchor: start;"></text></g><g class="node" transform="translate(390,-329.1391181945801)"><g class="gsymbol" transform=""><path class="symbol" fill="#1f77b4" d="M6.383076486422923,0A6.383076486422923,6.383076486422923,0,1,1,-6.383076486422923,0A6.383076486422923,6.383076486422923,0,1,1,6.383076486422923,0" stroke-width="0px"></path></g><text class="label" y="-8" x="-8" style="text-anchor: end;"> (20)</text></g><g class="node" transform="translate(630,181.21244430541992)"><g class="gsymbol" transform="rotate(90)"><path class="symbol" fill="#ff7f0e" d="M0,-9.926451830422396L8.596559454588334,4.963225915211198L-8.596559454588334,4.963225915211198Z" stroke-width="0px"></path></g><text class="label" y="3" x="8" style="text-anchor: start;">CYAP4_1_PE420 (CYAP4)</text></g><g class="node" transform="translate(570,271.2124443054199)"><g class="gsymbol" transform=""><path class="symbol" fill="#2ca02c" d="M6.383076486422923,0A6.383076486422923,6.383076486422923,0,1,1,-6.383076486422923,0A6.383076486422923,6.383076486422923,0,1,1,6.383076486422923,0" stroke-width="0px"></path></g><text class="label" y="-8" x="-8" style="text-anchor: end;"> (THEEB)</text></g><g class="node" transform="translate(630,361.2124443054199)"><g class="gsymbol" transform="rotate(90)"><path class="symbol" fill="#ff7f0e" d="M0,-9.926451830422396L8.596559454588334,4.963225915211198L-8.596559454588334,4.963225915211198Z" stroke-width="0px"></path></g><text class="label" y="3" x="8" style="text-anchor: start;">TRIEI_1_PE668 (TRIEI)</text></g><g class="node" transform="translate(270,481.1684989929199)"><g class="gsymbol" transform=""><path class="symbol" fill="#1f77b4" d="M6.383076486422923,0A6.383076486422923,6.383076486422923,0,1,1,-6.383076486422923,0A6.383076486422923,6.383076486422923,0,1,1,6.383076486422923,0" stroke-width="0px"></path></g><text class="label" y="-8" x="-8" style="text-anchor: end;"> (18)</text></g><g class="node" transform="translate(570,1141.21244430542)"><g class="gsymbol" transform=""><path class="symbol" fill="#2ca02c" d="M6.383076486422923,0A6.383076486422923,6.383076486422923,0,1,1,-6.383076486422923,0A6.383076486422923,6.383076486422923,0,1,1,6.383076486422923,0" stroke-width="0px"></path></g><text class="label" y="-8" x="-8" style="text-anchor: end;"> (SYNP2)</text></g><g class="node" transform="translate(120,1392.2088432312012)"><g class="gsymbol" transform=""><path class="symbol" fill="#1f77b4" d="M6.383076486422923,0A6.383076486422923,6.383076486422923,0,1,1,-6.383076486422923,0A6.383076486422923,6.383076486422923,0,1,1,6.383076486422923,0" stroke-width="0px"></path></g><text class="label" y="-8" x="-8" style="text-anchor: end;"> (29)</text></g><g class="node" transform="translate(630,-388.7875556945801)"><g class="gsymbol" transform="rotate(45)rotate(90)"><path class="symbol" fill="black" d="M-7.58946638440411,-2.5298221281347035L-2.5298221281347035,-2.5298221281347035L-2.5298221281347035,-7.58946638440411L2.5298221281347035,-7.58946638440411L2.5298221281347035,-2.5298221281347035L7.58946638440411,-2.5298221281347035L7.58946638440411,2.5298221281347035L2.5298221281347035,2.5298221281347035L2.5298221281347035,7.58946638440411L-2.5298221281347035,7.58946638440411L-2.5298221281347035,2.5298221281347035L-7.58946638440411,2.5298221281347035Z" stroke-width="0px"></path></g><text class="label" y="3" x="8" style="text-anchor: start;"></text></g><g class="node" transform="translate(420,-269.4906806945801)"><g class="gsymbol" transform=""><path class="symbol" fill="#1f77b4" d="M6.383076486422923,0A6.383076486422923,6.383076486422923,0,1,1,-6.383076486422923,0A6.383076486422923,6.383076486422923,0,1,1,6.383076486422923,0" stroke-width="0px"></path></g><text class="label" y="-8" x="-8" style="text-anchor: end;"> (20)</text></g><g class="node" transform="translate(630,241.21244430541992)"><g class="gsymbol" transform="rotate(90)"><path class="symbol" fill="#ff7f0e" d="M0,-9.926451830422396L8.596559454588334,4.963225915211198L-8.596559454588334,4.963225915211198Z" stroke-width="0px"></path></g><text class="label" y="3" x="8" style="text-anchor: start;">THEEB_1_PE1494 (THEEB)</text></g><g class="node" transform="translate(600,301.2124443054199)"><g class="gsymbol" transform=""><path class="symbol" fill="#d62728" d="M0,-10.52859210361994L6.07868548521274,0L0,10.52859210361994L-6.07868548521274,0Z" stroke-width="0px"></path></g><text class="label" y="-8" x="-8" style="text-anchor: end;"> ( -&gt; GLVIO1)</text></g><g class="node" transform="translate(600,421.2124443054199)"><g class="gsymbol" transform=""><path class="symbol" fill="#d62728" d="M0,-10.52859210361994L6.07868548521274,0L0,10.52859210361994L-6.07868548521274,0Z" stroke-width="0px"></path></g><text class="label" y="-8" x="-8" style="text-anchor: end;"> ( -&gt; E)</text></g><g class="node" transform="translate(300,541.1245536804199)"><g class="gsymbol" transform=""><path class="symbol" fill="#2ca02c" d="M6.383076486422923,0A6.383076486422923,6.383076486422923,0,1,1,-6.383076486422923,0A6.383076486422923,6.383076486422923,0,1,1,6.383076486422923,0" stroke-width="0px"></path></g><text class="label" y="-8" x="-8" style="text-anchor: end;"> (B)</text></g><g class="node" transform="translate(630,1111.21244430542)"><g class="gsymbol" transform="rotate(45)rotate(90)"><path class="symbol" fill="black" d="M-7.58946638440411,-2.5298221281347035L-2.5298221281347035,-2.5298221281347035L-2.5298221281347035,-7.58946638440411L2.5298221281347035,-7.58946638440411L2.5298221281347035,-2.5298221281347035L7.58946638440411,-2.5298221281347035L7.58946638440411,2.5298221281347035L2.5298221281347035,2.5298221281347035L2.5298221281347035,7.58946638440411L-2.5298221281347035,7.58946638440411L-2.5298221281347035,2.5298221281347035L-7.58946638440411,2.5298221281347035Z" stroke-width="0px"></path></g><text class="label" y="3" x="8" style="text-anchor: start;"></text></g><g class="node" transform="translate(600,1171.21244430542)"><g class="gsymbol" transform=""><path class="symbol" fill="#d62728" d="M0,-10.52859210361994L6.07868548521274,0L0,10.52859210361994L-6.07868548521274,0Z" stroke-width="0px"></path></g><text class="label" y="-8" x="-8" style="text-anchor: end;"> ( -&gt; ACAM1)</text></g><g class="node" transform="translate(570,1291.21244430542)"><g class="gsymbol" transform=""><path class="symbol" fill="#1f77b4" d="M6.383076486422923,0A6.383076486422923,6.383076486422923,0,1,1,-6.383076486422923,0A6.383076486422923,6.383076486422923,0,1,1,6.383076486422923,0" stroke-width="0px"></path></g><text class="label" y="-8" x="-8" style="text-anchor: end;"> (25)</text></g><g class="node" transform="translate(150,1493.2052421569824)"><g class="gsymbol" transform=""><path class="symbol" fill="#2ca02c" d="M6.383076486422923,0A6.383076486422923,6.383076486422923,0,1,1,-6.383076486422923,0A6.383076486422923,6.383076486422923,0,1,1,6.383076486422923,0" stroke-width="0px"></path></g><text class="label" y="-8" x="-8" style="text-anchor: end;"> (SYNY3)</text></g><g class="node" transform="translate(630,-328.7875556945801)"><g class="gsymbol" transform="rotate(45)rotate(90)"><path class="symbol" fill="black" d="M-7.58946638440411,-2.5298221281347035L-2.5298221281347035,-2.5298221281347035L-2.5298221281347035,-7.58946638440411L2.5298221281347035,-7.58946638440411L2.5298221281347035,-2.5298221281347035L7.58946638440411,-2.5298221281347035L7.58946638440411,2.5298221281347035L2.5298221281347035,2.5298221281347035L2.5298221281347035,7.58946638440411L-2.5298221281347035,7.58946638440411L-2.5298221281347035,2.5298221281347035L-7.58946638440411,2.5298221281347035Z" stroke-width="0px"></path></g><text class="label" y="3" x="8" style="text-anchor: start;"></text></g><g class="node" transform="translate(450,-210.19380569458008)"><g class="gsymbol" transform=""><path class="symbol" fill="#1f77b4" d="M6.383076486422923,0A6.383076486422923,6.383076486422923,0,1,1,-6.383076486422923,0A6.383076486422923,6.383076486422923,0,1,1,6.383076486422923,0" stroke-width="0px"></path></g><text class="label" y="-8" x="-8" style="text-anchor: end;"> (20)</text></g><g class="node" transform="translate(630,301.2124443054199)"><g class="gsymbol" transform="rotate(90)"><path class="symbol" fill="#ff7f0e" d="M0,-9.926451830422396L8.596559454588334,4.963225915211198L-8.596559454588334,4.963225915211198Z" stroke-width="0px"></path></g><text class="label" y="3" x="8" style="text-anchor: start;">GLVIO1_1_PE1169 (GLVIO1)</text></g><g class="node" transform="translate(630,421.2124443054199)"><g class="gsymbol" transform="rotate(90)"><path class="symbol" fill="#ff7f0e" d="M0,-9.926451830422396L8.596559454588334,4.963225915211198L-8.596559454588334,4.963225915211198Z" stroke-width="0px"></path></g><text class="label" y="3" x="8" style="text-anchor: start;">NOSP7_2_PE4607 (NOSP7)</text></g><g class="node" transform="translate(630,481.2124443054199)"><g class="gsymbol" transform="rotate(45)rotate(90)"><path class="symbol" fill="black" d="M-7.58946638440411,-2.5298221281347035L-2.5298221281347035,-2.5298221281347035L-2.5298221281347035,-7.58946638440411L2.5298221281347035,-7.58946638440411L2.5298221281347035,-2.5298221281347035L7.58946638440411,-2.5298221281347035L7.58946638440411,2.5298221281347035L2.5298221281347035,2.5298221281347035L2.5298221281347035,7.58946638440411L-2.5298221281347035,7.58946638440411L-2.5298221281347035,2.5298221281347035L-7.58946638440411,2.5298221281347035Z" stroke-width="0px"></path></g><text class="label" y="3" x="8" style="text-anchor: start;"></text></g><g class="node" transform="translate(330,601.0366630554199)"><g class="gsymbol" transform=""><path class="symbol" fill="#d62728" d="M0,-10.52859210361994L6.07868548521274,0L0,10.52859210361994L-6.07868548521274,0Z" stroke-width="0px"></path></g><text class="label" y="-8" x="-8" style="text-anchor: end;"> ( -&gt; E)</text></g><g class="node" transform="translate(630,1171.21244430542)"><g class="gsymbol" transform="rotate(90)"><path class="symbol" fill="#ff7f0e" d="M0,-9.926451830422396L8.596559454588334,4.963225915211198L-8.596559454588334,4.963225915211198Z" stroke-width="0px"></path></g><text class="label" y="3" x="8" style="text-anchor: start;">ACAM1_1_PE135 (ACAM1)</text></g><g class="node" transform="translate(600,1246.21244430542)"><g class="gsymbol" transform=""><path class="symbol" fill="#1f77b4" d="M6.383076486422923,0A6.383076486422923,6.383076486422923,0,1,1,-6.383076486422923,0A6.383076486422923,6.383076486422923,0,1,1,6.383076486422923,0" stroke-width="0px"></path></g><text class="label" y="-8" x="-8" style="text-anchor: end;"> (15)</text></g><g class="node" transform="translate(600,1336.21244430542)"><g class="gsymbol" transform=""><path class="symbol" fill="#1f77b4" d="M6.383076486422923,0A6.383076486422923,6.383076486422923,0,1,1,-6.383076486422923,0A6.383076486422923,6.383076486422923,0,1,1,6.383076486422923,0" stroke-width="0px"></path></g><text class="label" y="-8" x="-8" style="text-anchor: end;"> (24)</text></g><g class="node" transform="translate(630,1411.21244430542)"><g class="gsymbol" transform="rotate(90)"><path class="symbol" fill="#ff7f0e" d="M0,-9.926451830422396L8.596559454588334,4.963225915211198L-8.596559454588334,4.963225915211198Z" stroke-width="0px"></path></g><text class="label" y="3" x="8" style="text-anchor: start;">SYNY3_4_PE2642 (SYNY3)</text></g><g class="node" transform="translate(180,1575.198040008545)"><g class="gsymbol" transform=""><path class="symbol" fill="#2ca02c" d="M6.383076486422923,0A6.383076486422923,6.383076486422923,0,1,1,-6.383076486422923,0A6.383076486422923,6.383076486422923,0,1,1,6.383076486422923,0" stroke-width="0px"></path></g><text class="label" y="-8" x="-8" style="text-anchor: end;"> (23)</text></g><g class="node" transform="translate(630,-268.7875556945801)"><g class="gsymbol" transform="rotate(45)rotate(90)"><path class="symbol" fill="black" d="M-7.58946638440411,-2.5298221281347035L-2.5298221281347035,-2.5298221281347035L-2.5298221281347035,-7.58946638440411L2.5298221281347035,-7.58946638440411L2.5298221281347035,-2.5298221281347035L7.58946638440411,-2.5298221281347035L7.58946638440411,2.5298221281347035L2.5298221281347035,2.5298221281347035L2.5298221281347035,7.58946638440411L-2.5298221281347035,7.58946638440411L-2.5298221281347035,2.5298221281347035L-7.58946638440411,2.5298221281347035Z" stroke-width="0px"></path></g><text class="label" y="3" x="8" style="text-anchor: start;"></text></g><g class="node" transform="translate(480,-151.60005569458008)"><g class="gsymbol" transform=""><path class="symbol" fill="#1f77b4" d="M6.383076486422923,0A6.383076486422923,6.383076486422923,0,1,1,-6.383076486422923,0A6.383076486422923,6.383076486422923,0,1,1,6.383076486422923,0" stroke-width="0px"></path></g><text class="label" y="-8" x="-8" style="text-anchor: end;"> (20)</text></g><g class="node" transform="translate(360,601.0366630554199)"><g class="gsymbol" transform=""><path class="symbol" fill="#9467bd" d="M-5.656854249492381,-5.656854249492381h11.313708498984761v11.313708498984761h-11.313708498984761Z" stroke-width="0px"></path></g><text class="label" y="-8" x="-8" style="text-anchor: end;"> (E)</text></g><g class="node" transform="translate(630,1231.21244430542)"><g class="gsymbol" transform="rotate(90)"><path class="symbol" fill="#ff7f0e" d="M0,-9.926451830422396L8.596559454588334,4.963225915211198L-8.596559454588334,4.963225915211198Z" stroke-width="0px"></path></g><text class="label" y="3" x="8" style="text-anchor: start;">CYAA5_6_PE594 (CYAA5)</text></g><g class="node" transform="translate(630,1261.21244430542)"><g class="gsymbol" transform="rotate(90)"><path class="symbol" fill="#ff7f0e" d="M0,-9.926451830422396L8.596559454588334,4.963225915211198L-8.596559454588334,4.963225915211198Z" stroke-width="0px"></path></g><text class="label" y="3" x="8" style="text-anchor: start;">CYAP8_1_PE2632 (CYAP8)</text></g><g class="node" transform="translate(630,1321.21244430542)"><g class="gsymbol" transform="rotate(90)"><path class="symbol" fill="#ff7f0e" d="M0,-9.926451830422396L8.596559454588334,4.963225915211198L-8.596559454588334,4.963225915211198Z" stroke-width="0px"></path></g><text class="label" y="3" x="8" style="text-anchor: start;">CYAP7_1_PE2280 (CYAP7)</text></g><g class="node" transform="translate(630,1351.21244430542)"><g class="gsymbol" transform="rotate(90)"><path class="symbol" fill="#ff7f0e" d="M0,-9.926451830422396L8.596559454588334,4.963225915211198L-8.596559454588334,4.963225915211198Z" stroke-width="0px"></path></g><text class="label" y="3" x="8" style="text-anchor: start;">MICAN_1_PE2716 (MICAN)</text></g><g class="node" transform="translate(570,1486.21244430542)"><g class="gsymbol" transform=""><path class="symbol" fill="#d62728" d="M0,-10.52859210361994L6.07868548521274,0L0,10.52859210361994L-6.07868548521274,0Z" stroke-width="0px"></path></g><text class="label" y="-8" x="-8" style="text-anchor: end;"> ( -&gt; 1)</text></g><g class="node" transform="translate(210,1664.18363571167)"><g class="gsymbol" transform=""><path class="symbol" fill="#1f77b4" d="M6.383076486422923,0A6.383076486422923,6.383076486422923,0,1,1,-6.383076486422923,0A6.383076486422923,6.383076486422923,0,1,1,6.383076486422923,0" stroke-width="0px"></path></g><text class="label" y="-8" x="-8" style="text-anchor: end;"> (23)</text></g><g class="node" transform="translate(630,-208.78755569458008)"><g class="gsymbol" transform="rotate(45)rotate(90)"><path class="symbol" fill="black" d="M-7.58946638440411,-2.5298221281347035L-2.5298221281347035,-2.5298221281347035L-2.5298221281347035,-7.58946638440411L2.5298221281347035,-7.58946638440411L2.5298221281347035,-2.5298221281347035L7.58946638440411,-2.5298221281347035L7.58946638440411,2.5298221281347035L2.5298221281347035,2.5298221281347035L2.5298221281347035,7.58946638440411L-2.5298221281347035,7.58946638440411L-2.5298221281347035,2.5298221281347035L-7.58946638440411,2.5298221281347035Z" stroke-width="0px"></path></g><text class="label" y="3" x="8" style="text-anchor: start;"></text></g><g class="node" transform="translate(510,-94.41255569458008)"><g class="gsymbol" transform=""><path class="symbol" fill="#1f77b4" d="M6.383076486422923,0A6.383076486422923,6.383076486422923,0,1,1,-6.383076486422923,0A6.383076486422923,6.383076486422923,0,1,1,6.383076486422923,0" stroke-width="0px"></path></g><text class="label" y="-8" x="-8" style="text-anchor: end;"> (20)</text></g><g class="node" transform="translate(630,541.2124443054199)"><g class="gsymbol" transform="rotate(90)"><path class="symbol" fill="#ff7f0e" d="M0,-9.926451830422396L8.596559454588334,4.963225915211198L-8.596559454588334,4.963225915211198Z" stroke-width="0px"></path></g><text class="label" y="3" x="8" style="text-anchor: start;">ANAVT_4_PE931 (ANAVT)</text></g><g class="node" transform="translate(390,660.8608818054199)"><g class="gsymbol" transform=""><path class="symbol" fill="#1f77b4" d="M6.383076486422923,0A6.383076486422923,6.383076486422923,0,1,1,-6.383076486422923,0A6.383076486422923,6.383076486422923,0,1,1,6.383076486422923,0" stroke-width="0px"></path></g><text class="label" y="-8" x="-8" style="text-anchor: end;"> (20)</text></g><g class="node" transform="translate(600,1486.21244430542)"><g class="gsymbol" transform=""><path class="symbol" fill="#1f77b4" d="M6.383076486422923,0A6.383076486422923,6.383076486422923,0,1,1,-6.383076486422923,0A6.383076486422923,6.383076486422923,0,1,1,6.383076486422923,0" stroke-width="0px"></path></g><text class="label" y="-8" x="-8" style="text-anchor: end;"> (1)</text></g><g class="node" transform="translate(630,1561.21244430542)"><g class="gsymbol" transform="rotate(90)"><path class="symbol" fill="#ff7f0e" d="M0,-9.926451830422396L8.596559454588334,4.963225915211198L-8.596559454588334,4.963225915211198Z" stroke-width="0px"></path></g><text class="label" y="3" x="8" style="text-anchor: start;">SYNR3_2_PE944 (SYNR3)</text></g><g class="node" transform="translate(240,1767.15482711792)"><g class="gsymbol" transform=""><path class="symbol" fill="#2ca02c" d="M6.383076486422923,0A6.383076486422923,6.383076486422923,0,1,1,-6.383076486422923,0A6.383076486422923,6.383076486422923,0,1,1,6.383076486422923,0" stroke-width="0px"></path></g><text class="label" y="-8" x="-8" style="text-anchor: end;"> (22)</text></g><g class="node" transform="translate(630,-148.78755569458008)"><g class="gsymbol" transform="rotate(45)rotate(90)"><path class="symbol" fill="black" d="M-7.58946638440411,-2.5298221281347035L-2.5298221281347035,-2.5298221281347035L-2.5298221281347035,-7.58946638440411L2.5298221281347035,-7.58946638440411L2.5298221281347035,-2.5298221281347035L7.58946638440411,-2.5298221281347035L7.58946638440411,2.5298221281347035L2.5298221281347035,2.5298221281347035L2.5298221281347035,7.58946638440411L-2.5298221281347035,7.58946638440411L-2.5298221281347035,2.5298221281347035L-7.58946638440411,2.5298221281347035Z" stroke-width="0px"></path></g><text class="label" y="3" x="8" style="text-anchor: start;"></text></g><g class="node" transform="translate(540,-40.03755569458008)"><g class="gsymbol" transform=""><path class="symbol" fill="#1f77b4" d="M6.383076486422923,0A6.383076486422923,6.383076486422923,0,1,1,-6.383076486422923,0A6.383076486422923,6.383076486422923,0,1,1,6.383076486422923,0" stroke-width="0px"></path></g><text class="label" y="-8" x="-8" style="text-anchor: end;"> (20)</text></g><g class="node" transform="translate(630,601.2124443054199)"><g class="gsymbol" transform="rotate(45)rotate(90)"><path class="symbol" fill="black" d="M-7.58946638440411,-2.5298221281347035L-2.5298221281347035,-2.5298221281347035L-2.5298221281347035,-7.58946638440411L2.5298221281347035,-7.58946638440411L2.5298221281347035,-2.5298221281347035L7.58946638440411,-2.5298221281347035L7.58946638440411,2.5298221281347035L2.5298221281347035,2.5298221281347035L2.5298221281347035,7.58946638440411L-2.5298221281347035,7.58946638440411L-2.5298221281347035,2.5298221281347035L-7.58946638440411,2.5298221281347035Z" stroke-width="0px"></path></g><text class="label" y="3" x="8" style="text-anchor: start;"></text></g><g class="node" transform="translate(420,720.5093193054199)"><g class="gsymbol" transform=""><path class="symbol" fill="#1f77b4" d="M6.383076486422923,0A6.383076486422923,6.383076486422923,0,1,1,-6.383076486422923,0A6.383076486422923,6.383076486422923,0,1,1,6.383076486422923,0" stroke-width="0px"></path></g><text class="label" y="-8" x="-8" style="text-anchor: end;"> (20)</text></g><g class="node" transform="translate(630,1471.21244430542)"><g class="gsymbol" transform="rotate(90)"><path class="symbol" fill="#ff7f0e" d="M0,-9.926451830422396L8.596559454588334,4.963225915211198L-8.596559454588334,4.963225915211198Z" stroke-width="0px"></path></g><text class="label" y="3" x="8" style="text-anchor: start;">SYNE7_1_PE221 (SYNE7)</text></g><g class="node" transform="translate(630,1501.21244430542)"><g class="gsymbol" transform="rotate(90)"><path class="symbol" fill="#ff7f0e" d="M0,-9.926451830422396L8.596559454588334,4.963225915211198L-8.596559454588334,4.963225915211198Z" stroke-width="0px"></path></g><text class="label" y="3" x="8" style="text-anchor: start;">SYNP6_1_PE1291 (SYNP6)</text></g><g class="node" transform="translate(570,1636.21244430542)"><g class="gsymbol" transform=""><path class="symbol" fill="#d62728" d="M0,-10.52859210361994L6.07868548521274,0L0,10.52859210361994L-6.07868548521274,0Z" stroke-width="0px"></path></g><text class="label" y="-8" x="-8" style="text-anchor: end;"> ( -&gt; 11)</text></g><g class="node" transform="translate(270,1898.09720993042)"><g class="gsymbol" transform=""><path class="symbol" fill="#1f77b4" d="M6.383076486422923,0A6.383076486422923,6.383076486422923,0,1,1,-6.383076486422923,0A6.383076486422923,6.383076486422923,0,1,1,6.383076486422923,0" stroke-width="0px"></path></g><text class="label" y="-8" x="-8" style="text-anchor: end;"> (22)</text></g><g class="node" transform="translate(630,-88.78755569458008)"><g class="gsymbol" transform="rotate(45)rotate(90)"><path class="symbol" fill="black" d="M-7.58946638440411,-2.5298221281347035L-2.5298221281347035,-2.5298221281347035L-2.5298221281347035,-7.58946638440411L2.5298221281347035,-7.58946638440411L2.5298221281347035,-2.5298221281347035L7.58946638440411,-2.5298221281347035L7.58946638440411,2.5298221281347035L2.5298221281347035,2.5298221281347035L2.5298221281347035,7.58946638440411L-2.5298221281347035,7.58946638440411L-2.5298221281347035,2.5298221281347035L-7.58946638440411,2.5298221281347035Z" stroke-width="0px"></path></g><text class="label" y="3" x="8" style="text-anchor: start;"></text></g><g class="node" transform="translate(570,8.712444305419922)"><g class="gsymbol" transform=""><path class="symbol" fill="#1f77b4" d="M6.383076486422923,0A6.383076486422923,6.383076486422923,0,1,1,-6.383076486422923,0A6.383076486422923,6.383076486422923,0,1,1,6.383076486422923,0" stroke-width="0px"></path></g><text class="label" y="-8" x="-8" style="text-anchor: end;"> (20)</text></g><g class="node" transform="translate(630,661.2124443054199)"><g class="gsymbol" transform="rotate(45)rotate(90)"><path class="symbol" fill="black" d="M-7.58946638440411,-2.5298221281347035L-2.5298221281347035,-2.5298221281347035L-2.5298221281347035,-7.58946638440411L2.5298221281347035,-7.58946638440411L2.5298221281347035,-2.5298221281347035L7.58946638440411,-2.5298221281347035L7.58946638440411,2.5298221281347035L2.5298221281347035,2.5298221281347035L2.5298221281347035,7.58946638440411L-2.5298221281347035,7.58946638440411L-2.5298221281347035,2.5298221281347035L-7.58946638440411,2.5298221281347035Z" stroke-width="0px"></path></g><text class="label" y="3" x="8" style="text-anchor: start;"></text></g><g class="node" transform="translate(450,779.8061943054199)"><g class="gsymbol" transform=""><path class="symbol" fill="#1f77b4" d="M6.383076486422923,0A6.383076486422923,6.383076486422923,0,1,1,-6.383076486422923,0A6.383076486422923,6.383076486422923,0,1,1,6.383076486422923,0" stroke-width="0px"></path></g><text class="label" y="-8" x="-8" style="text-anchor: end;"> (20)</text></g><g class="node" transform="translate(600,1636.21244430542)"><g class="gsymbol" transform=""><path class="symbol" fill="#1f77b4" d="M6.383076486422923,0A6.383076486422923,6.383076486422923,0,1,1,-6.383076486422923,0A6.383076486422923,6.383076486422923,0,1,1,6.383076486422923,0" stroke-width="0px"></path></g><text class="label" y="-8" x="-8" style="text-anchor: end;"> (11)</text></g><g class="node" transform="translate(540,1759.96244430542)"><g class="gsymbol" transform=""><path class="symbol" fill="#1f77b4" d="M6.383076486422923,0A6.383076486422923,6.383076486422923,0,1,1,-6.383076486422923,0A6.383076486422923,6.383076486422923,0,1,1,6.383076486422923,0" stroke-width="0px"></path></g><text class="label" y="-8" x="-8" style="text-anchor: end;"> (19)</text></g><g class="node" transform="translate(300,2036.23197555542)"><g class="gsymbol" transform=""><path class="symbol" fill="#1f77b4" d="M6.383076486422923,0A6.383076486422923,6.383076486422923,0,1,1,-6.383076486422923,0A6.383076486422923,6.383076486422923,0,1,1,6.383076486422923,0" stroke-width="0px"></path></g><text class="label" y="-8" x="-8" style="text-anchor: end;"> (21)</text></g><g class="node" transform="translate(630,-28.787555694580078)"><g class="gsymbol" transform="rotate(45)rotate(90)"><path class="symbol" fill="black" d="M-7.58946638440411,-2.5298221281347035L-2.5298221281347035,-2.5298221281347035L-2.5298221281347035,-7.58946638440411L2.5298221281347035,-7.58946638440411L2.5298221281347035,-2.5298221281347035L7.58946638440411,-2.5298221281347035L7.58946638440411,2.5298221281347035L2.5298221281347035,2.5298221281347035L2.5298221281347035,7.58946638440411L-2.5298221281347035,7.58946638440411L-2.5298221281347035,2.5298221281347035L-7.58946638440411,2.5298221281347035Z" stroke-width="0px"></path></g><text class="label" y="3" x="8" style="text-anchor: start;"></text></g><g class="node" transform="translate(600,46.21244430541992)"><g class="gsymbol" transform=""><path class="symbol" fill="#1f77b4" d="M6.383076486422923,0A6.383076486422923,6.383076486422923,0,1,1,-6.383076486422923,0A6.383076486422923,6.383076486422923,0,1,1,6.383076486422923,0" stroke-width="0px"></path></g><text class="label" y="-8" x="-8" style="text-anchor: end;"> (3)</text></g><g class="node" transform="translate(630,721.2124443054199)"><g class="gsymbol" transform="rotate(45)rotate(90)"><path class="symbol" fill="black" d="M-7.58946638440411,-2.5298221281347035L-2.5298221281347035,-2.5298221281347035L-2.5298221281347035,-7.58946638440411L2.5298221281347035,-7.58946638440411L2.5298221281347035,-2.5298221281347035L7.58946638440411,-2.5298221281347035L7.58946638440411,2.5298221281347035L2.5298221281347035,2.5298221281347035L2.5298221281347035,7.58946638440411L-2.5298221281347035,7.58946638440411L-2.5298221281347035,2.5298221281347035L-7.58946638440411,2.5298221281347035Z" stroke-width="0px"></path></g><text class="label" y="3" x="8" style="text-anchor: start;"></text></g><g class="node" transform="translate(480,838.3999443054199)"><g class="gsymbol" transform=""><path class="symbol" fill="#1f77b4" d="M6.383076486422923,0A6.383076486422923,6.383076486422923,0,1,1,-6.383076486422923,0A6.383076486422923,6.383076486422923,0,1,1,6.383076486422923,0" stroke-width="0px"></path></g><text class="label" y="-8" x="-8" style="text-anchor: end;"> (20)</text></g><g class="node" transform="translate(630,1621.21244430542)"><g class="gsymbol" transform="rotate(90)"><path class="symbol" fill="#ff7f0e" d="M0,-9.926451830422396L8.596559454588334,4.963225915211198L-8.596559454588334,4.963225915211198Z" stroke-width="0px"></path></g><text class="label" y="3" x="8" style="text-anchor: start;">SYNPW_2_PE774 (SYNPW)</text></g><g class="node" transform="translate(630,1651.21244430542)"><g class="gsymbol" transform="rotate(90)"><path class="symbol" fill="#ff7f0e" d="M0,-9.926451830422396L8.596559454588334,4.963225915211198L-8.596559454588334,4.963225915211198Z" stroke-width="0px"></path></g><text class="label" y="3" x="8" style="text-anchor: start;">SYNS3_1_PE1833 (SYNS3)</text></g><g class="node" transform="translate(630,1711.21244430542)"><g class="gsymbol" transform="rotate(45)rotate(90)"><path class="symbol" fill="black" d="M-7.58946638440411,-2.5298221281347035L-2.5298221281347035,-2.5298221281347035L-2.5298221281347035,-7.58946638440411L2.5298221281347035,-7.58946638440411L2.5298221281347035,-2.5298221281347035L7.58946638440411,-2.5298221281347035L7.58946638440411,2.5298221281347035L2.5298221281347035,2.5298221281347035L2.5298221281347035,7.58946638440411L-2.5298221281347035,7.58946638440411L-2.5298221281347035,2.5298221281347035L-7.58946638440411,2.5298221281347035Z" stroke-width="0px"></path></g><text class="label" y="3" x="8" style="text-anchor: start;"></text></g><g class="node" transform="translate(570,1808.71244430542)"><g class="gsymbol" transform=""><path class="symbol" fill="#1f77b4" d="M6.383076486422923,0A6.383076486422923,6.383076486422923,0,1,1,-6.383076486422923,0A6.383076486422923,6.383076486422923,0,1,1,6.383076486422923,0" stroke-width="0px"></path></g><text class="label" y="-8" x="-8" style="text-anchor: end;"> (13)</text></g><g class="node" transform="translate(600,1936.21244430542)"><g class="gsymbol" transform=""><path class="symbol" fill="#1f77b4" d="M6.383076486422923,0A6.383076486422923,6.383076486422923,0,1,1,-6.383076486422923,0A6.383076486422923,6.383076486422923,0,1,1,6.383076486422923,0" stroke-width="0px"></path></g><text class="label" y="-8" x="-8" style="text-anchor: end;"> (4)</text></g><g class="node" transform="translate(330,2136.25150680542)"><g class="gsymbol" transform=""><path class="symbol" fill="#1f77b4" d="M6.383076486422923,0A6.383076486422923,6.383076486422923,0,1,1,-6.383076486422923,0A6.383076486422923,6.383076486422923,0,1,1,6.383076486422923,0" stroke-width="0px"></path></g><text class="label" y="-8" x="-8" style="text-anchor: end;"> (17)</text></g><g class="node" transform="translate(630,31.212444305419922)"><g class="gsymbol" transform="rotate(90)"><path class="symbol" fill="#ff7f0e" d="M0,-9.926451830422396L8.596559454588334,4.963225915211198L-8.596559454588334,4.963225915211198Z" stroke-width="0px"></path></g><text class="label" y="3" x="8" style="text-anchor: start;">SYNJB_1_PE950 (SYNJB)</text></g><g class="node" transform="translate(630,61.21244430541992)"><g class="gsymbol" transform="rotate(90)"><path class="symbol" fill="#ff7f0e" d="M0,-9.926451830422396L8.596559454588334,4.963225915211198L-8.596559454588334,4.963225915211198Z" stroke-width="0px"></path></g><text class="label" y="3" x="8" style="text-anchor: start;">SYNJA_1_PE2030 (SYNJA)</text></g><g class="node" transform="translate(630,781.2124443054199)"><g class="gsymbol" transform="rotate(45)rotate(90)"><path class="symbol" fill="black" d="M-7.58946638440411,-2.5298221281347035L-2.5298221281347035,-2.5298221281347035L-2.5298221281347035,-7.58946638440411L2.5298221281347035,-7.58946638440411L2.5298221281347035,-2.5298221281347035L7.58946638440411,-2.5298221281347035L7.58946638440411,2.5298221281347035L2.5298221281347035,2.5298221281347035L2.5298221281347035,7.58946638440411L-2.5298221281347035,7.58946638440411L-2.5298221281347035,2.5298221281347035L-7.58946638440411,2.5298221281347035Z" stroke-width="0px"></path></g><text class="label" y="3" x="8" style="text-anchor: start;"></text></g><g class="node" transform="translate(510,895.5874443054199)"><g class="gsymbol" transform=""><path class="symbol" fill="#1f77b4" d="M6.383076486422923,0A6.383076486422923,6.383076486422923,0,1,1,-6.383076486422923,0A6.383076486422923,6.383076486422923,0,1,1,6.383076486422923,0" stroke-width="0px"></path></g><text class="label" y="-8" x="-8" style="text-anchor: end;"> (20)</text></g><g class="node" transform="translate(630,1771.21244430542)"><g class="gsymbol" transform="rotate(90)"><path class="symbol" fill="#ff7f0e" d="M0,-9.926451830422396L8.596559454588334,4.963225915211198L-8.596559454588334,4.963225915211198Z" stroke-width="0px"></path></g><text class="label" y="3" x="8" style="text-anchor: start;">SYNPX_1_PE1481 (SYNPX)</text></g><g class="node" transform="translate(600,1846.21244430542)"><g class="gsymbol" transform=""><path class="symbol" fill="#1f77b4" d="M6.383076486422923,0A6.383076486422923,6.383076486422923,0,1,1,-6.383076486422923,0A6.383076486422923,6.383076486422923,0,1,1,6.383076486422923,0" stroke-width="0px"></path></g><text class="label" y="-8" x="-8" style="text-anchor: end;"> (12)</text></g><g class="node" transform="translate(630,1921.21244430542)"><g class="gsymbol" transform="rotate(90)"><path class="symbol" fill="#ff7f0e" d="M0,-9.926451830422396L8.596559454588334,4.963225915211198L-8.596559454588334,4.963225915211198Z" stroke-width="0px"></path></g><text class="label" y="3" x="8" style="text-anchor: start;">PROM3_1_PE1845 (PROM3)</text></g><g class="node" transform="translate(630,1951.21244430542)"><g class="gsymbol" transform="rotate(90)"><path class="symbol" fill="#ff7f0e" d="M0,-9.926451830422396L8.596559454588334,4.963225915211198L-8.596559454588334,4.963225915211198Z" stroke-width="0px"></path></g><text class="label" y="3" x="8" style="text-anchor: start;">PROMM_1_PE495 (PROMM)</text></g><g class="node" transform="translate(570,2048.71244430542)"><g class="gsymbol" transform=""><path class="symbol" fill="#1f77b4" d="M6.383076486422923,0A6.383076486422923,6.383076486422923,0,1,1,-6.383076486422923,0A6.383076486422923,6.383076486422923,0,1,1,6.383076486422923,0" stroke-width="0px"></path></g><text class="label" y="-8" x="-8" style="text-anchor: end;"> (16)</text></g><g class="node" transform="translate(360,2223.79056930542)"><g class="gsymbol" transform=""><path class="symbol" fill="#1f77b4" d="M6.383076486422923,0A6.383076486422923,6.383076486422923,0,1,1,-6.383076486422923,0A6.383076486422923,6.383076486422923,0,1,1,6.383076486422923,0" stroke-width="0px"></path></g><text class="label" y="-8" x="-8" style="text-anchor: end;"> (14)</text></g><g class="node" transform="translate(630,841.2124443054199)"><g class="gsymbol" transform="rotate(45)rotate(90)"><path class="symbol" fill="black" d="M-7.58946638440411,-2.5298221281347035L-2.5298221281347035,-2.5298221281347035L-2.5298221281347035,-7.58946638440411L2.5298221281347035,-7.58946638440411L2.5298221281347035,-2.5298221281347035L7.58946638440411,-2.5298221281347035L7.58946638440411,2.5298221281347035L2.5298221281347035,2.5298221281347035L2.5298221281347035,7.58946638440411L-2.5298221281347035,7.58946638440411L-2.5298221281347035,2.5298221281347035L-7.58946638440411,2.5298221281347035Z" stroke-width="0px"></path></g><text class="label" y="3" x="8" style="text-anchor: start;"></text></g><g class="node" transform="translate(540,949.9624443054199)"><g class="gsymbol" transform=""><path class="symbol" fill="#1f77b4" d="M6.383076486422923,0A6.383076486422923,6.383076486422923,0,1,1,-6.383076486422923,0A6.383076486422923,6.383076486422923,0,1,1,6.383076486422923,0" stroke-width="0px"></path></g><text class="label" y="-8" x="-8" style="text-anchor: end;"> (20)</text></g><g class="node" transform="translate(630,1831.21244430542)"><g class="gsymbol" transform="rotate(90)"><path class="symbol" fill="#ff7f0e" d="M0,-9.926451830422396L8.596559454588334,4.963225915211198L-8.596559454588334,4.963225915211198Z" stroke-width="0px"></path></g><text class="label" y="3" x="8" style="text-anchor: start;">SYNSC_1_PE1008 (SYNSC)</text></g><g class="node" transform="translate(630,1861.21244430542)"><g class="gsymbol" transform="rotate(90)"><path class="symbol" fill="#ff7f0e" d="M0,-9.926451830422396L8.596559454588334,4.963225915211198L-8.596559454588334,4.963225915211198Z" stroke-width="0px"></path></g><text class="label" y="3" x="8" style="text-anchor: start;">SYNS9_1_PE925 (SYNS9)</text></g><g class="node" transform="translate(630,2011.21244430542)"><g class="gsymbol" transform="rotate(45)rotate(90)"><path class="symbol" fill="black" d="M-7.58946638440411,-2.5298221281347035L-2.5298221281347035,-2.5298221281347035L-2.5298221281347035,-7.58946638440411L2.5298221281347035,-7.58946638440411L2.5298221281347035,-2.5298221281347035L7.58946638440411,-2.5298221281347035L7.58946638440411,2.5298221281347035L2.5298221281347035,2.5298221281347035L2.5298221281347035,7.58946638440411L-2.5298221281347035,7.58946638440411L-2.5298221281347035,2.5298221281347035L-7.58946638440411,2.5298221281347035Z" stroke-width="0px"></path></g><text class="label" y="3" x="8" style="text-anchor: start;"></text></g><g class="node" transform="translate(600,2086.21244430542)"><g class="gsymbol" transform=""><path class="symbol" fill="#1f77b4" d="M6.383076486422923,0A6.383076486422923,6.383076486422923,0,1,1,-6.383076486422923,0A6.383076486422923,6.383076486422923,0,1,1,6.383076486422923,0" stroke-width="0px"></path></g><text class="label" y="-8" x="-8" style="text-anchor: end;"> (2)</text></g><g class="node" transform="translate(630,2161.21244430542)"><g class="gsymbol" transform="rotate(90)"><path class="symbol" fill="#ff7f0e" d="M0,-9.926451830422396L8.596559454588334,4.963225915211198L-8.596559454588334,4.963225915211198Z" stroke-width="0px"></path></g><text class="label" y="3" x="8" style="text-anchor: start;">PRMAR1_1_PE1063 (PRMAR1)</text></g><g class="node" transform="translate(390,2286.36869430542)"><g class="gsymbol" transform=""><path class="symbol" fill="#2ca02c" d="M6.383076486422923,0A6.383076486422923,6.383076486422923,0,1,1,-6.383076486422923,0A6.383076486422923,6.383076486422923,0,1,1,6.383076486422923,0" stroke-width="0px"></path></g><text class="label" y="-8" x="-8" style="text-anchor: end;"> (PROM4)</text></g><g class="node" transform="translate(630,901.2124443054199)"><g class="gsymbol" transform="rotate(45)rotate(90)"><path class="symbol" fill="black" d="M-7.58946638440411,-2.5298221281347035L-2.5298221281347035,-2.5298221281347035L-2.5298221281347035,-7.58946638440411L2.5298221281347035,-7.58946638440411L2.5298221281347035,-2.5298221281347035L7.58946638440411,-2.5298221281347035L7.58946638440411,2.5298221281347035L2.5298221281347035,2.5298221281347035L2.5298221281347035,7.58946638440411L-2.5298221281347035,7.58946638440411L-2.5298221281347035,2.5298221281347035L-7.58946638440411,2.5298221281347035Z" stroke-width="0px"></path></g><text class="label" y="3" x="8" style="text-anchor: start;"></text></g><g class="node" transform="translate(570,998.7124443054199)"><g class="gsymbol" transform=""><path class="symbol" fill="#1f77b4" d="M6.383076486422923,0A6.383076486422923,6.383076486422923,0,1,1,-6.383076486422923,0A6.383076486422923,6.383076486422923,0,1,1,6.383076486422923,0" stroke-width="0px"></path></g><text class="label" y="-8" x="-8" style="text-anchor: end;"> (20)</text></g><g class="node" transform="translate(630,2071.21244430542)"><g class="gsymbol" transform="rotate(90)"><path class="symbol" fill="#ff7f0e" d="M0,-9.926451830422396L8.596559454588334,4.963225915211198L-8.596559454588334,4.963225915211198Z" stroke-width="0px"></path></g><text class="label" y="3" x="8" style="text-anchor: start;">PROM1_1_PE651 (PROM1)</text></g><g class="node" transform="translate(630,2101.21244430542)"><g class="gsymbol" transform="rotate(90)"><path class="symbol" fill="#ff7f0e" d="M0,-9.926451830422396L8.596559454588334,4.963225915211198L-8.596559454588334,4.963225915211198Z" stroke-width="0px"></path></g><text class="label" y="3" x="8" style="text-anchor: start;">PROMT_1_PE635 (PROMT)</text></g><g class="node" transform="translate(630,2221.21244430542)"><g class="gsymbol" transform="rotate(90)"><path class="symbol" fill="#ff7f0e" d="M0,-9.926451830422396L8.596559454588334,4.963225915211198L-8.596559454588334,4.963225915211198Z" stroke-width="0px"></path></g><text class="label" y="3" x="8" style="text-anchor: start;">PROM4_1_PE1056 (PROM4)</text></g><g class="node" transform="translate(420,2351.52494430542)"><g class="gsymbol" transform=""><path class="symbol" fill="#2ca02c" d="M6.383076486422923,0A6.383076486422923,6.383076486422923,0,1,1,-6.383076486422923,0A6.383076486422923,6.383076486422923,0,1,1,6.383076486422923,0" stroke-width="0px"></path></g><text class="label" y="-8" x="-8" style="text-anchor: end;"> (10)</text></g><g class="node" transform="translate(630,961.2124443054199)"><g class="gsymbol" transform="rotate(45)rotate(90)"><path class="symbol" fill="black" d="M-7.58946638440411,-2.5298221281347035L-2.5298221281347035,-2.5298221281347035L-2.5298221281347035,-7.58946638440411L2.5298221281347035,-7.58946638440411L2.5298221281347035,-2.5298221281347035L7.58946638440411,-2.5298221281347035L7.58946638440411,2.5298221281347035L2.5298221281347035,2.5298221281347035L2.5298221281347035,7.58946638440411L-2.5298221281347035,7.58946638440411L-2.5298221281347035,2.5298221281347035L-7.58946638440411,2.5298221281347035Z" stroke-width="0px"></path></g><text class="label" y="3" x="8" style="text-anchor: start;"></text></g><g class="node" transform="translate(600,1036.21244430542)"><g class="gsymbol" transform=""><path class="symbol" fill="#1f77b4" d="M6.383076486422923,0A6.383076486422923,6.383076486422923,0,1,1,-6.383076486422923,0A6.383076486422923,6.383076486422923,0,1,1,6.383076486422923,0" stroke-width="0px"></path></g><text class="label" y="-8" x="-8" style="text-anchor: end;"> (20)</text></g><g class="node" transform="translate(600,2281.21244430542)"><g class="gsymbol" transform=""><path class="symbol" fill="#d62728" d="M0,-10.52859210361994L6.07868548521274,0L0,10.52859210361994L-6.07868548521274,0Z" stroke-width="0px"></path></g><text class="label" y="-8" x="-8" style="text-anchor: end;"> ( -&gt; PROM5)</text></g><g class="node" transform="translate(450,2421.83744430542)"><g class="gsymbol" transform=""><path class="symbol" fill="#1f77b4" d="M6.383076486422923,0A6.383076486422923,6.383076486422923,0,1,1,-6.383076486422923,0A6.383076486422923,6.383076486422923,0,1,1,6.383076486422923,0" stroke-width="0px"></path></g><text class="label" y="-8" x="-8" style="text-anchor: end;"> (10)</text></g><g class="node" transform="translate(630,1021.2124443054199)"><g class="gsymbol" transform="rotate(45)rotate(90)"><path class="symbol" fill="black" d="M-7.58946638440411,-2.5298221281347035L-2.5298221281347035,-2.5298221281347035L-2.5298221281347035,-7.58946638440411L2.5298221281347035,-7.58946638440411L2.5298221281347035,-2.5298221281347035L7.58946638440411,-2.5298221281347035L7.58946638440411,2.5298221281347035L2.5298221281347035,2.5298221281347035L2.5298221281347035,7.58946638440411L-2.5298221281347035,7.58946638440411L-2.5298221281347035,2.5298221281347035L-7.58946638440411,2.5298221281347035Z" stroke-width="0px"></path></g><text class="label" y="3" x="8" style="text-anchor: start;"></text></g><g class="node" transform="translate(630,1051.21244430542)"><g class="gsymbol" transform="rotate(90)"><path class="symbol" fill="#ff7f0e" d="M0,-9.926451830422396L8.596559454588334,4.963225915211198L-8.596559454588334,4.963225915211198Z" stroke-width="0px"></path></g><text class="label" y="3" x="8" style="text-anchor: start;">ANASP_6_PE2969 (ANASP)</text></g><g class="node" transform="translate(630,2281.21244430542)"><g class="gsymbol" transform="rotate(90)"><path class="symbol" fill="#ff7f0e" d="M0,-9.926451830422396L8.596559454588334,4.963225915211198L-8.596559454588334,4.963225915211198Z" stroke-width="0px"></path></g><text class="label" y="3" x="8" style="text-anchor: start;">PROM5_1_PE662 (PROM5)</text></g><g class="node" transform="translate(600,2356.21244430542)"><g class="gsymbol" transform=""><path class="symbol" fill="#1f77b4" d="M6.383076486422923,0A6.383076486422923,6.383076486422923,0,1,1,-6.383076486422923,0A6.383076486422923,6.383076486422923,0,1,1,6.383076486422923,0" stroke-width="0px"></path></g><text class="label" y="-8" x="-8" style="text-anchor: end;"> (5)</text></g><g class="node" transform="translate(480,2487.46244430542)"><g class="gsymbol" transform=""><path class="symbol" fill="#1f77b4" d="M6.383076486422923,0A6.383076486422923,6.383076486422923,0,1,1,-6.383076486422923,0A6.383076486422923,6.383076486422923,0,1,1,6.383076486422923,0" stroke-width="0px"></path></g><text class="label" y="-8" x="-8" style="text-anchor: end;"> (9)</text></g><g class="node" transform="translate(630,2341.21244430542)"><g class="gsymbol" transform="rotate(45)rotate(90)"><path class="symbol" fill="black" d="M-7.58946638440411,-2.5298221281347035L-2.5298221281347035,-2.5298221281347035L-2.5298221281347035,-7.58946638440411L2.5298221281347035,-7.58946638440411L2.5298221281347035,-2.5298221281347035L7.58946638440411,-2.5298221281347035L7.58946638440411,2.5298221281347035L2.5298221281347035,2.5298221281347035L2.5298221281347035,7.58946638440411L-2.5298221281347035,7.58946638440411L-2.5298221281347035,2.5298221281347035L-7.58946638440411,2.5298221281347035Z" stroke-width="0px"></path></g><text class="label" y="3" x="8" style="text-anchor: start;"></text></g><g class="node" transform="translate(630,2371.21244430542)"><g class="gsymbol" transform="rotate(90)"><path class="symbol" fill="#ff7f0e" d="M0,-9.926451830422396L8.596559454588334,4.963225915211198L-8.596559454588334,4.963225915211198Z" stroke-width="0px"></path></g><text class="label" y="3" x="8" style="text-anchor: start;">PROMP_1_PE651 (PROMP)</text></g><g class="node" transform="translate(630,2431.21244430542)"><g class="gsymbol" transform="rotate(90)"><path class="symbol" fill="#ff7f0e" d="M0,-9.926451830422396L8.596559454588334,4.963225915211198L-8.596559454588334,4.963225915211198Z" stroke-width="0px"></path></g><text class="label" y="3" x="8" style="text-anchor: start;">PROM9_1_PE623 (PROM9)</text></g><g class="node" transform="translate(510,2543.71244430542)"><g class="gsymbol" transform=""><path class="symbol" fill="#1f77b4" d="M6.383076486422923,0A6.383076486422923,6.383076486422923,0,1,1,-6.383076486422923,0A6.383076486422923,6.383076486422923,0,1,1,6.383076486422923,0" stroke-width="0px"></path></g><text class="label" y="-8" x="-8" style="text-anchor: end;"> (8)</text></g><g class="node" transform="translate(630,2491.21244430542)"><g class="gsymbol" transform="rotate(45)rotate(90)"><path class="symbol" fill="black" d="M-7.58946638440411,-2.5298221281347035L-2.5298221281347035,-2.5298221281347035L-2.5298221281347035,-7.58946638440411L2.5298221281347035,-7.58946638440411L2.5298221281347035,-2.5298221281347035L7.58946638440411,-2.5298221281347035L7.58946638440411,2.5298221281347035L2.5298221281347035,2.5298221281347035L2.5298221281347035,7.58946638440411L-2.5298221281347035,7.58946638440411L-2.5298221281347035,2.5298221281347035L-7.58946638440411,2.5298221281347035Z" stroke-width="0px"></path></g><text class="label" y="3" x="8" style="text-anchor: start;"></text></g><g class="node" transform="translate(540,2596.21244430542)"><g class="gsymbol" transform=""><path class="symbol" fill="#1f77b4" d="M6.383076486422923,0A6.383076486422923,6.383076486422923,0,1,1,-6.383076486422923,0A6.383076486422923,6.383076486422923,0,1,1,6.383076486422923,0" stroke-width="0px"></path></g><text class="label" y="-8" x="-8" style="text-anchor: end;"> (7)</text></g><g class="node" transform="translate(630,2551.21244430542)"><g class="gsymbol" transform="rotate(90)"><path class="symbol" fill="#ff7f0e" d="M0,-9.926451830422396L8.596559454588334,4.963225915211198L-8.596559454588334,4.963225915211198Z" stroke-width="0px"></path></g><text class="label" y="3" x="8" style="text-anchor: start;">PROMS_1_PE651 (PROMS)</text></g><g class="node" transform="translate(570,2641.21244430542)"><g class="gsymbol" transform=""><path class="symbol" fill="#2ca02c" d="M6.383076486422923,0A6.383076486422923,6.383076486422923,0,1,1,-6.383076486422923,0A6.383076486422923,6.383076486422923,0,1,1,6.383076486422923,0" stroke-width="0px"></path></g><text class="label" y="-8" x="-8" style="text-anchor: end;"> (PROM0)</text></g><g class="node" transform="translate(630,2611.21244430542)"><g class="gsymbol" transform="rotate(90)"><path class="symbol" fill="#ff7f0e" d="M0,-9.926451830422396L8.596559454588334,4.963225915211198L-8.596559454588334,4.963225915211198Z" stroke-width="0px"></path></g><text class="label" y="3" x="8" style="text-anchor: start;">PROM0_1_PE623 (PROM0)</text></g><g class="node" transform="translate(600,2671.21244430542)"><g class="gsymbol" transform=""><path class="symbol" fill="#d62728" d="M0,-10.52859210361994L6.07868548521274,0L0,10.52859210361994L-6.07868548521274,0Z" stroke-width="0px"></path></g><text class="label" y="-8" x="-8" style="text-anchor: end;"> ( -&gt; PROM2)</text></g><g class="node" transform="translate(630,2671.21244430542)"><g class="gsymbol" transform="rotate(90)"><path class="symbol" fill="#ff7f0e" d="M0,-9.926451830422396L8.596559454588334,4.963225915211198L-8.596559454588334,4.963225915211198Z" stroke-width="0px"></path></g><text class="label" y="3" x="8" style="text-anchor: start;">PROM2_1_PE676 (PROM2)</text></g></g></g></svg>