<?xml version="1.0" standalone="no"?>
<!DOCTYPE svg PUBLIC "-//W3C//DTD SVG 1.1//EN" 
"http://www.w3.org/Graphics/SVG/1.1/DTD/svg11.dtd"> <svg><g id="main"><g stroke-width="4" stroke="red" fill="none" transform="rotate(-90,500,500)"><g stroke-width="1" stroke="black"><text x="134.83146067415728" y="0"></text><text x="44.9438202247191" y="52.63157894736842"></text><text x="224.7191011235955" y="52.63157894736842"></text><text x="29.9625468164794" y="105.26315789473684">le</text><text x="59.9250936329588" y="105.26315789473684">le</text><text x="119.8501872659176" y="105.26315789473684"></text><text x="329.5880149812734" y="105.26315789473684"></text><text x="104.8689138576779" y="157.89473684210526">le</text><text x="134.83146067415728" y="157.89473684210526"></text><text x="224.7191011235955" y="157.89473684210526"></text><text x="434.4569288389513" y="157.89473684210526"></text><text x="119.8501872659176" y="210.52631578947367">le</text><text x="149.812734082397" y="210.52631578947367">tb</text><text x="209.7378277153558" y="210.52631578947367">le</text><text x="239.7003745318352" y="210.52631578947367"></text><text x="419.4756554307116" y="210.52631578947367">tb</text><text x="449.438202247191" y="210.52631578947367"></text><text x="224.7191011235955" y="263.1578947368421">le</text><text x="254.6816479400749" y="263.1578947368421"></text><text x="374.5318352059925" y="263.1578947368421"></text><text x="524.3445692883895" y="263.1578947368421"></text><text x="239.7003745318352" y="315.7894736842105">le</text><text x="269.66292134831457" y="315.7894736842105">le</text><text x="329.5880149812734" y="315.7894736842105"></text><text x="419.4756554307116" y="315.7894736842105"></text><text x="509.3632958801498" y="315.7894736842105">le</text><text x="539.3258426966291" y="315.7894736842105"></text><text x="314.6067415730337" y="368.4210526315789">le</text><text x="344.5692883895131" y="368.4210526315789">le</text><text x="404.4943820224719" y="368.4210526315789">le</text><text x="434.4569288389513" y="368.4210526315789">le</text><text x="494.3820224719101" y="368.4210526315789">tb</text><text x="584.2696629213483" y="368.4210526315789"></text><text x="479.4007490636704" y="421.05263157894734">le</text><text x="509.3632958801498" y="421.05263157894734">le</text><text x="569.2883895131085" y="421.05263157894734">le</text><text x="599.250936329588" y="421.05263157894734"></text><text x="520.5992509363296" y="473.6842105263158">tb</text><text x="677.9026217228464" y="473.6842105263158"></text><text x="505.61797752808985" y="526.3157894736842">le</text><text x="535.5805243445693" y="526.3157894736842">le</text><text x="595.5056179775281" y="526.3157894736842"></text><text x="760.2996254681648" y="526.3157894736842"></text><text x="580.5243445692884" y="578.9473684210526">le</text><text x="610.4868913857678" y="578.9473684210526"></text><text x="700.374531835206" y="578.9473684210526"></text><text x="820.2247191011236" y="578.9473684210526"></text><text x="595.5056179775281" y="631.578947368421">le</text><text x="625.4681647940074" y="631.578947368421">le</text><text x="685.3932584269662" y="631.578947368421">le</text><text x="715.3558052434456" y="631.578947368421">le</text><text x="775.2808988764044" y="631.578947368421"></text><text x="865.1685393258426" y="631.578947368421"></text><text x="760.2996254681648" y="684.2105263157895">le</text><text x="790.2621722846442" y="684.2105263157895">le</text><text x="850.187265917603" y="684.2105263157895">le</text><text x="880.1498127340824" y="684.2105263157895"></text><text x="865.1685393258426" y="736.8421052631578">le</text><text x="895.131086142322" y="736.8421052631578"></text><text x="880.1498127340824" y="789.4736842105262">tb</text><text x="910.1123595505618" y="789.4736842105262"></text><text x="895.131086142322" y="842.1052631578947">le</text><text x="925.0936329588014" y="842.1052631578947"></text><text x="910.1123595505618" y="894.7368421052631">le</text><text x="940.0749063670412" y="894.7368421052631"></text><text x="925.0936329588014" y="947.3684210526316">le</text><text x="955.0561797752808" y="947.3684210526316"></text><text x="940.0749063670412" y="999.9999999999999">le</text><text x="970.0374531835206" y="999.9999999999999">tb</text></g><path></path><path d="M134.83146067415728,0L44.9438202247191,0L44.9438202247191,52.63157894736842"></path><path d="M134.83146067415728,0L224.7191011235955,0L224.7191011235955,52.63157894736842"></path><path d="M44.9438202247191,52.63157894736842L29.9625468164794,52.63157894736842L29.9625468164794,105.26315789473684"></path><path d="M44.9438202247191,52.63157894736842L59.9250936329588,52.63157894736842L59.9250936329588,105.26315789473684"></path><path d="M224.7191011235955,52.63157894736842L119.8501872659176,52.63157894736842L119.8501872659176,105.26315789473684"></path><path d="M224.7191011235955,52.63157894736842L329.5880149812734,52.63157894736842L329.5880149812734,105.26315789473684"></path><path d="M119.8501872659176,105.26315789473684L104.8689138576779,105.26315789473684L104.8689138576779,157.89473684210526"></path><path d="M119.8501872659176,105.26315789473684L134.83146067415728,105.26315789473684L134.83146067415728,157.89473684210526"></path><path d="M329.5880149812734,105.26315789473684L224.7191011235955,105.26315789473684L224.7191011235955,157.89473684210526"></path><path d="M329.5880149812734,105.26315789473684L434.4569288389513,105.26315789473684L434.4569288389513,157.89473684210526"></path><path d="M134.83146067415728,157.89473684210526L119.8501872659176,157.89473684210526L119.8501872659176,210.52631578947367"></path><path d="M134.83146067415728,157.89473684210526L149.812734082397,157.89473684210526L149.812734082397,210.52631578947367" stroke-dasharray="5,5"></path><path d="M224.7191011235955,157.89473684210526L209.7378277153558,157.89473684210526L209.7378277153558,210.52631578947367"></path><path d="M224.7191011235955,157.89473684210526L239.7003745318352,157.89473684210526L239.7003745318352,210.52631578947367"></path><path d="M434.4569288389513,157.89473684210526L419.4756554307116,157.89473684210526L419.4756554307116,210.52631578947367" stroke-dasharray="5,5"></path><path d="M434.4569288389513,157.89473684210526L449.438202247191,157.89473684210526L449.438202247191,210.52631578947367"></path><path d="M239.7003745318352,210.52631578947367L224.7191011235955,210.52631578947367L224.7191011235955,263.1578947368421"></path><path d="M239.7003745318352,210.52631578947367L254.6816479400749,210.52631578947367L254.6816479400749,263.1578947368421"></path><path d="M449.438202247191,210.52631578947367L374.5318352059925,210.52631578947367L374.5318352059925,263.1578947368421"></path><path d="M449.438202247191,210.52631578947367L524.3445692883895,210.52631578947367L524.3445692883895,263.1578947368421"></path><path d="M254.6816479400749,263.1578947368421L239.7003745318352,263.1578947368421L239.7003745318352,315.7894736842105"></path><path d="M254.6816479400749,263.1578947368421L269.66292134831457,263.1578947368421L269.66292134831457,315.7894736842105"></path><path d="M374.5318352059925,263.1578947368421L329.5880149812734,263.1578947368421L329.5880149812734,315.7894736842105"></path><path d="M374.5318352059925,263.1578947368421L419.4756554307116,263.1578947368421L419.4756554307116,315.7894736842105"></path><path d="M524.3445692883895,263.1578947368421L509.3632958801498,263.1578947368421L509.3632958801498,315.7894736842105"></path><path d="M524.3445692883895,263.1578947368421L539.3258426966291,263.1578947368421L539.3258426966291,315.7894736842105"></path><path d="M329.5880149812734,315.7894736842105L314.6067415730337,315.7894736842105L314.6067415730337,368.4210526315789"></path><path d="M329.5880149812734,315.7894736842105L344.5692883895131,315.7894736842105L344.5692883895131,368.4210526315789"></path><path d="M419.4756554307116,315.7894736842105L404.4943820224719,315.7894736842105L404.4943820224719,368.4210526315789"></path><path d="M419.4756554307116,315.7894736842105L434.4569288389513,315.7894736842105L434.4569288389513,368.4210526315789"></path><path d="M539.3258426966291,315.7894736842105L494.3820224719101,315.7894736842105L494.3820224719101,368.4210526315789" stroke-dasharray="5,5"></path><path d="M539.3258426966291,315.7894736842105L584.2696629213483,315.7894736842105L584.2696629213483,368.4210526315789"></path><path d="M494.3820224719101,368.4210526315789L479.4007490636704,368.4210526315789L479.4007490636704,421.05263157894734"></path><path d="M494.3820224719101,368.4210526315789L509.3632958801498,368.4210526315789L509.3632958801498,421.05263157894734"></path><path d="M584.2696629213483,368.4210526315789L569.2883895131085,368.4210526315789L569.2883895131085,421.05263157894734"></path><path d="M584.2696629213483,368.4210526315789L599.250936329588,368.4210526315789L599.250936329588,421.05263157894734"></path><path d="M599.250936329588,421.05263157894734L520.5992509363296,421.05263157894734L520.5992509363296,473.6842105263158" stroke-dasharray="5,5"></path><path d="M599.250936329588,421.05263157894734L677.9026217228464,421.05263157894734L677.9026217228464,473.6842105263158"></path><path d="M520.5992509363296,473.6842105263158L505.61797752808985,473.6842105263158L505.61797752808985,526.3157894736842"></path><path d="M520.5992509363296,473.6842105263158L535.5805243445693,473.6842105263158L535.5805243445693,526.3157894736842"></path><path d="M677.9026217228464,473.6842105263158L595.5056179775281,473.6842105263158L595.5056179775281,526.3157894736842"></path><path d="M677.9026217228464,473.6842105263158L760.2996254681648,473.6842105263158L760.2996254681648,526.3157894736842"></path><path d="M595.5056179775281,526.3157894736842L580.5243445692884,526.3157894736842L580.5243445692884,578.9473684210526"></path><path d="M595.5056179775281,526.3157894736842L610.4868913857678,526.3157894736842L610.4868913857678,578.9473684210526"></path><path d="M760.2996254681648,526.3157894736842L700.374531835206,526.3157894736842L700.374531835206,578.9473684210526"></path><path d="M760.2996254681648,526.3157894736842L820.2247191011236,526.3157894736842L820.2247191011236,578.9473684210526"></path><path d="M610.4868913857678,578.9473684210526L595.5056179775281,578.9473684210526L595.5056179775281,631.578947368421"></path><path d="M610.4868913857678,578.9473684210526L625.4681647940074,578.9473684210526L625.4681647940074,631.578947368421"></path><path d="M700.374531835206,578.9473684210526L685.3932584269662,578.9473684210526L685.3932584269662,631.578947368421"></path><path d="M700.374531835206,578.9473684210526L715.3558052434456,578.9473684210526L715.3558052434456,631.578947368421"></path><path d="M820.2247191011236,578.9473684210526L775.2808988764044,578.9473684210526L775.2808988764044,631.578947368421"></path><path d="M820.2247191011236,578.9473684210526L865.1685393258426,578.9473684210526L865.1685393258426,631.578947368421"></path><path d="M775.2808988764044,631.578947368421L760.2996254681648,631.578947368421L760.2996254681648,684.2105263157895"></path><path d="M775.2808988764044,631.578947368421L790.2621722846442,631.578947368421L790.2621722846442,684.2105263157895"></path><path d="M865.1685393258426,631.578947368421L850.187265917603,631.578947368421L850.187265917603,684.2105263157895"></path><path d="M865.1685393258426,631.578947368421L880.1498127340824,631.578947368421L880.1498127340824,684.2105263157895"></path><path d="M880.1498127340824,684.2105263157895L865.1685393258426,684.2105263157895L865.1685393258426,736.8421052631578"></path><path d="M880.1498127340824,684.2105263157895L895.131086142322,684.2105263157895L895.131086142322,736.8421052631578"></path><path d="M895.131086142322,736.8421052631578L880.1498127340824,736.8421052631578L880.1498127340824,789.4736842105262" stroke-dasharray="5,5"></path><path d="M895.131086142322,736.8421052631578L910.1123595505618,736.8421052631578L910.1123595505618,789.4736842105262"></path><path d="M910.1123595505618,789.4736842105262L895.131086142322,789.4736842105262L895.131086142322,842.1052631578947"></path><path d="M910.1123595505618,789.4736842105262L925.0936329588014,789.4736842105262L925.0936329588014,842.1052631578947"></path><path d="M925.0936329588014,842.1052631578947L910.1123595505618,842.1052631578947L910.1123595505618,894.7368421052631"></path><path d="M925.0936329588014,842.1052631578947L940.0749063670412,842.1052631578947L940.0749063670412,894.7368421052631"></path><path d="M940.0749063670412,894.7368421052631L925.0936329588014,894.7368421052631L925.0936329588014,947.3684210526316"></path><path d="M940.0749063670412,894.7368421052631L955.0561797752808,894.7368421052631L955.0561797752808,947.3684210526316"></path><path d="M955.0561797752808,947.3684210526316L940.0749063670412,947.3684210526316L940.0749063670412,999.9999999999999"></path><path d="M955.0561797752808,947.3684210526316L970.0374531835206,947.3684210526316L970.0374531835206,999.9999999999999" stroke-dasharray="5,5"></path></g></g></svg>